<svg width="52" height="41" viewBox="0 0 52 41" fill="none" xmlns="http://www.w3.org/2000/svg">
<path d="M26 8.54167L25.6285 8.07051L26 7.7776L26.3715 8.07051L26 8.54167ZM26.6 23.9167C26.6 24.248 26.3313 24.5167 26 24.5167C25.6686 24.5167 25.4 24.248 25.4 23.9167L26.6 23.9167ZM14.7951 16.6122L25.6285 8.07051L26.3715 9.01283L15.5381 17.5545L14.7951 16.6122ZM26.3715 8.07051L37.2048 16.6122L36.4618 17.5545L25.6285 9.01283L26.3715 8.07051ZM26.6 8.54167L26.6 23.9167L25.4 23.9167L25.4 8.54167L26.6 8.54167Z" fill="#222222"/>
<path d="M10.8334 27.3333L10.8334 29.0417C10.8334 30.9286 12.7735 32.4583 15.1667 32.4583L36.8334 32.4583C39.2266 32.4583 41.1667 30.9286 41.1667 29.0417V27.3333" stroke="#2A4157" stroke-opacity="0.24" stroke-width="1.2"/>
</svg>
