<svg width="36" height="38" viewBox="0 0 36 38" fill="none" xmlns="http://www.w3.org/2000/svg">
<path fill-rule="evenodd" clip-rule="evenodd" d="M19.5737 7.9502L25.0075 2.17669C26.3733 0.725564 27.0562 0 27.9203 0C28.7845 0 29.4674 0.725565 30.8331 2.1767L33.3401 4.84038C34.5626 6.13926 35.1738 6.78869 35.1738 7.58185C35.1738 8.375 34.5626 9.02443 33.3401 10.3233L27.6332 16.387C24.2967 14.2646 21.5326 11.3642 19.5737 7.9502ZM18.1461 9.46697L2.72211 25.855C2.32397 26.278 2.1249 26.4895 1.99502 26.7448C1.86513 27.0002 1.8114 27.2856 1.70394 27.8565L0.0591833 36.5943C-0.00360289 36.9278 -0.034996 37.0946 0.0607466 37.1881C0.156489 37.2817 0.322487 37.2464 0.654483 37.1758L8.6965 35.4669C9.30366 35.3379 9.60724 35.2734 9.87348 35.1236C10.1397 34.9738 10.3524 34.7477 10.7779 34.2957L26.2396 17.8676C22.9419 15.7022 20.178 12.827 18.1461 9.46697Z" fill="#222222"/>
</svg>
