<svg width="57" height="47" viewBox="0 0 57 47" fill="none" xmlns="http://www.w3.org/2000/svg">
<path d="M55.4162 23.1149L29.7833 0.51472C29.5987 0.351555 29.3795 0.222106 29.1382 0.133784C28.8968 0.0454621 28.6381 0 28.3769 0C28.1156 0 27.8569 0.0454621 27.6156 0.133784C27.3742 0.222106 27.155 0.351555 26.9704 0.51472L1.33754 23.1149C0.590772 23.7738 0.167603 24.6688 0.167603 25.6023C0.167603 27.5405 1.95363 29.1164 4.15038 29.1164H6.8512V45.2429C6.8512 46.2148 7.7411 47 8.84259 47H24.3941V34.7006H31.3639V47H47.9111C49.0126 47 49.9025 46.2148 49.9025 45.2429V29.1164H52.6033C53.6613 29.1164 54.6756 28.7485 55.4224 28.0841C56.972 26.7114 56.972 24.4876 55.4162 23.1149Z" fill="black"/>
</svg>
