<svg width="61" height="47" viewBox="0 0 61 47" fill="none" xmlns="http://www.w3.org/2000/svg">
<path d="M59.7375 23.1149L32.0219 0.51472C31.8224 0.351555 31.5854 0.222106 31.3244 0.133784C31.0635 0.0454621 30.7838 0 30.5013 0C30.2188 0 29.939 0.0454621 29.6781 0.133784C29.4172 0.222106 29.1801 0.351555 28.9806 0.51472L1.265 23.1149C0.457552 23.7738 0 24.6688 0 25.6023C0 27.5405 1.93114 29.1164 4.30638 29.1164H7.22664V45.2429C7.22664 46.2148 8.18885 47 9.37983 47H26.1949V34.7006H33.731V47H51.6227C52.8137 47 53.7759 46.2148 53.7759 45.2429V29.1164H56.6961C57.84 29.1164 58.9368 28.7485 59.7442 28.0841C61.4197 26.7114 61.4197 24.4876 59.7375 23.1149Z" fill="black"/>
</svg>
