<svg width="57" height="40" viewBox="0 0 57 40" fill="none" xmlns="http://www.w3.org/2000/svg">
<path d="M28.5 23.3333L28.1553 23.8245L28.5 24.0663L28.8447 23.8245L28.5 23.3333ZM29.1 8.33333C29.1 8.00196 28.8314 7.73333 28.5 7.73333C28.1686 7.73333 27.9 8.00196 27.9 8.33333L29.1 8.33333ZM16.2803 15.4911L28.1553 23.8245L28.8447 22.8422L16.9697 14.5089L16.2803 15.4911ZM28.8447 23.8245L40.7197 15.4911L40.0303 14.5089L28.1553 22.8422L28.8447 23.8245ZM29.1 23.3333L29.1 8.33333L27.9 8.33333L27.9 23.3333L29.1 23.3333Z" fill="#222222"/>
<path d="M11.875 26.6667L11.875 28.3333C11.875 30.1743 14.0016 31.6667 16.625 31.6667L40.375 31.6667C42.9984 31.6667 45.125 30.1743 45.125 28.3333V26.6667" stroke="#2A4157" stroke-opacity="0.24" stroke-width="1.2"/>
</svg>
