<svg width="50" height="56" viewBox="0 0 50 56" fill="none" xmlns="http://www.w3.org/2000/svg">
<path fill-rule="evenodd" clip-rule="evenodd" d="M0 24.5833C0 11.0063 11.0063 0 24.5833 0C38.1603 0 49.1667 11.0063 49.1667 24.5833V31.25C49.1667 39.148 45.4422 46.1761 39.6538 50.6737C38.709 47.1664 36.8186 44.0555 34.2195 41.7907C31.4718 39.3965 28.0852 38.0833 24.5833 38.0833C21.0814 38.0833 17.6949 39.3965 14.9472 41.7907C12.3481 44.0555 10.4576 47.1664 9.51289 50.6737C3.72448 46.176 0 39.148 0 31.25V24.5833ZM37.8575 51.7278C37.8722 51.7902 37.8925 51.8498 37.9176 51.9063C34.0766 54.3909 29.4984 55.8333 24.5833 55.8333C19.6683 55.8333 15.0901 54.3909 11.249 51.9063C11.2742 51.8498 11.2945 51.7901 11.3092 51.7278C12.1052 48.3544 13.8542 45.3959 16.2611 43.2986C18.6654 41.2036 21.5913 40.0833 24.5833 40.0833C27.5754 40.0833 30.5013 41.2036 32.9056 43.2986C35.3125 45.3959 37.0615 48.3544 37.8575 51.7278ZM18.2083 19.5417C18.2083 15.3453 21.1782 12.1667 24.5833 12.1667C27.9885 12.1667 30.9583 15.3453 30.9583 19.5417C30.9583 23.738 27.9885 26.9167 24.5833 26.9167C21.1782 26.9167 18.2083 23.738 18.2083 19.5417ZM24.5833 10.1667C19.8423 10.1667 16.2083 14.4873 16.2083 19.5417C16.2083 24.5961 19.8423 28.9167 24.5833 28.9167C29.3244 28.9167 32.9583 24.5961 32.9583 19.5417C32.9583 14.4873 29.3244 10.1667 24.5833 10.1667Z" fill="#222222"/>
</svg>
